<?xml version="1.0" encoding="utf-8"?>
<!-- Generator: Adobe Illustrator 27.2.0, SVG Export Plug-In . SVG Version: 6.00 Build 0)  -->
<svg version="1.1" id="Calque_1" xmlns="http://www.w3.org/2000/svg" xmlns:xlink="http://www.w3.org/1999/xlink" x="0px" y="0px"
	 viewBox="0 0 144 153.5" style="enable-background:new 0 0 144 153.5;" xml:space="preserve">
<style type="text/css">
	.st0{fill:#7E28D1;}
	.st1{fill:url(#SVGID_1_);}
	.st2{fill:url(#SVGID_00000152949748845093918610000007982244153159871383_);}
	.st3{fill:url(#SVGID_00000183215991925040835180000013594053382654853779_);}
	.st4{fill:url(#SVGID_00000039845626181814914360000013151148704735929260_);}
	.st5{fill:url(#SVGID_00000114058319113344559420000008317107165625738930_);}
	.st6{fill:url(#SVGID_00000118365871559498837240000006972057913033385402_);}
	.st7{fill:url(#SVGID_00000101810183413690617030000012324084351934645124_);}
	.st8{fill:url(#SVGID_00000161612225390717473630000004304275274253971878_);}
	.st9{fill:url(#SVGID_00000125585037040606688770000004006404286029331122_);}
	.st10{fill:url(#SVGID_00000133529058837047917770000005726046102500141226_);}
	.st11{fill:url(#SVGID_00000036252007914703812030000009130089254676072877_);}
	.st12{fill:url(#SVGID_00000119813915808333557110000006855404616478320031_);}
	.st13{fill:url(#SVGID_00000132053370660760890140000012798592986266249371_);}
	.st14{fill:url(#SVGID_00000089540789115478935220000013465647142864604860_);}
	.st15{fill:url(#SVGID_00000116957112983536170360000007366467089206017211_);}
	.st16{fill:url(#SVGID_00000008859010660385812010000010934029418121186944_);}
</style>
<g>
	<path class="st0" d="M35,109.9c1.4,0,2.7,1.2,2.7,2.6c0,1.5-1.2,2.7-2.7,2.7h-5.2V139c0,1.4-1.2,2.6-2.7,2.6s-2.6-1.2-2.6-2.6
		v-23.7h-5.3c-1.4,0-2.6-1.2-2.6-2.7c0-1.4,1.2-2.6,2.6-2.6H35V109.9z"/>
	<path class="st0" d="M39,125.8c0-8.7,6.8-15.8,15.1-15.8c8.4,0,15.2,7.1,15.2,15.8s-6.8,15.8-15.2,15.8
		C45.8,141.6,39,134.5,39,125.8z M44.2,125.8c0,5.8,4.4,10.5,9.9,10.5s9.9-4.7,9.9-10.5s-4.4-10.5-9.9-10.5
		C48.8,115.2,44.2,119.9,44.2,125.8z"/>
	<path class="st0" d="M96.5,112.6V139c0,1.4-1.2,2.6-2.7,2.6c-1.4,0-2.6-1.2-2.6-2.6v-10.6H79.3V139c0,1.4-1.2,2.6-2.7,2.6
		c-1.4,0-2.6-1.2-2.6-2.6v-26.4c0-1.4,1.2-2.6,2.6-2.6s2.7,1.2,2.7,2.6v10.6h11.8v-10.6c0-1.4,1.2-2.6,2.6-2.6
		C95.3,109.9,96.5,111.1,96.5,112.6z"/>
	<path class="st0" d="M127.3,138c0.1,0.3,0.2,0.7,0.2,1c0,1.4-1,2.6-2.6,2.6c-1,0-2-0.6-2.4-1.7l-2-4.9h-12.3l-2,4.9
		c-0.4,1-1.4,1.7-2.4,1.7c-1.5,0-2.6-1.3-2.6-2.6c0-0.4,0-0.7,0.2-1l10.5-26.4c0.4-1,1.4-1.7,2.5-1.7c1,0,2,0.7,2.4,1.7L127.3,138z
		 M118.3,129.7l-4-10.1l-4,10.1H118.3z"/>
	<path class="st0" d="M81.8,40.2c1.6,0,3,1.3,3,3s-1.4,3-3,3h-5.9V65c0,1.6-1.4,3-3,3s-3-1.3-3-3V46.1h-6c-1.6,0-3-1.3-3-3
		c0-1.6,1.3-3,3-3h17.9V40.2z"/>
	<g>
		
			<linearGradient id="SVGID_1_" gradientUnits="userSpaceOnUse" x1="114.0443" y1="91.7955" x2="65.4047" y2="140.4351" gradientTransform="matrix(1 0 0 -1 0 153.8898)">
			<stop  offset="0" style="stop-color:#00CEC3"/>
			<stop  offset="1" style="stop-color:#0066CC"/>
			<stop  offset="1" style="stop-color:#0066CC"/>
		</linearGradient>
		<path class="st1" d="M69.8,24.2c0.9,0.8,2,1.3,3.2,1.3s2.3-0.5,3.2-1.3c0.9-0.9,1.3-2,1.3-3.2c0-1.1-0.4-2.3-1.3-3.2
			c-0.9-0.8-2-1.3-3.2-1.3s-2.3,0.5-3.2,1.3c-0.9,0.9-1.3,2-1.3,3.2S68.9,23.3,69.8,24.2z"/>
		
			<linearGradient id="SVGID_00000121270002914134247630000011240332575581864325_" gradientUnits="userSpaceOnUse" x1="97.8443" y1="75.5955" x2="49.2047" y2="124.235" gradientTransform="matrix(1 0 0 -1 0 153.8898)">
			<stop  offset="0" style="stop-color:#00CEC3"/>
			<stop  offset="1" style="stop-color:#0066CC"/>
			<stop  offset="1" style="stop-color:#0066CC"/>
		</linearGradient>
		<path style="fill:url(#SVGID_00000121270002914134247630000011240332575581864325_);" d="M45.9,47.8c0.5,0.5,1,1.1,1.3,1.8l22-22
			c-0.6-0.3-1.1-0.7-1.6-1.2s-0.9-1-1.2-1.6l-22,21.9C45,47,45.4,47.3,45.9,47.8z"/>
		
			<linearGradient id="SVGID_00000183929858207517271850000008732771758581262014_" gradientUnits="userSpaceOnUse" x1="114.0694" y1="91.8204" x2="65.4297" y2="140.46" gradientTransform="matrix(1 0 0 -1 0 153.8898)">
			<stop  offset="0" style="stop-color:#00CEC3"/>
			<stop  offset="1" style="stop-color:#0066CC"/>
			<stop  offset="1" style="stop-color:#0066CC"/>
		</linearGradient>
		<path style="fill:url(#SVGID_00000183929858207517271850000008732771758581262014_);" d="M76.7,27.5l21.8,21.8
			c0.3-0.4,0.6-0.9,1-1.2c0.6-0.6,1.3-1.1,2-1.4l-22-22.1c-0.3,0.6-0.8,1.2-1.3,1.8C77.7,26.8,77.2,27.2,76.7,27.5z"/>
		
			<linearGradient id="SVGID_00000125604328476068282640000010981060823583677348_" gradientUnits="userSpaceOnUse" x1="81.8443" y1="59.5954" x2="33.2048" y2="108.235" gradientTransform="matrix(1 0 0 -1 0 153.8898)">
			<stop  offset="0" style="stop-color:#00CEC3"/>
			<stop  offset="1" style="stop-color:#0066CC"/>
			<stop  offset="1" style="stop-color:#0066CC"/>
		</linearGradient>
		<path style="fill:url(#SVGID_00000125604328476068282640000010981060823583677348_);" d="M69.6,79.3L47,56.7
			c-0.3,0.6-0.7,1.1-1.2,1.6s-1,0.9-1.6,1.2L66.8,82c0.3-0.6,0.7-1.1,1.2-1.6C68.5,80,69,79.6,69.6,79.3z"/>
		
			<linearGradient id="SVGID_00000029007887737000818760000010920210875055843512_" gradientUnits="userSpaceOnUse" x1="81.8943" y1="59.6455" x2="33.2547" y2="108.285" gradientTransform="matrix(1 0 0 -1 0 153.8898)">
			<stop  offset="0" style="stop-color:#00CEC3"/>
			<stop  offset="1" style="stop-color:#0066CC"/>
			<stop  offset="1" style="stop-color:#0066CC"/>
		</linearGradient>
		<path style="fill:url(#SVGID_00000029007887737000818760000010920210875055843512_);" d="M37.5,56.2c0.9,0.8,1.9,1.3,3.2,1.3
			c1.2,0,2.3-0.5,3.2-1.3c0.9-0.9,1.3-2,1.3-3.2c0-1.1-0.4-2.3-1.3-3.2c-0.9-0.8-2-1.3-3.2-1.3s-2.3,0.5-3.2,1.3
			c-0.9,0.9-1.3,2-1.3,3.2S36.5,55.3,37.5,56.2z"/>
		
			<linearGradient id="SVGID_00000103249327443232721610000006055935293898906033_" gradientUnits="userSpaceOnUse" x1="97.7443" y1="75.4954" x2="49.1048" y2="124.135" gradientTransform="matrix(1 0 0 -1 0 153.8898)">
			<stop  offset="0" style="stop-color:#00CEC3"/>
			<stop  offset="1" style="stop-color:#0066CC"/>
			<stop  offset="1" style="stop-color:#0066CC"/>
		</linearGradient>
		<path style="fill:url(#SVGID_00000103249327443232721610000006055935293898906033_);" d="M99.6,58.6c-0.5-0.5-0.8-1-1.2-1.5
			L76.5,79c0.8,0.4,1.5,0.8,2.1,1.5c0.4,0.4,0.7,0.8,0.9,1.2L101.2,60C100.6,59.6,100.1,59.1,99.6,58.6z"/>
		
			<linearGradient id="SVGID_00000003815768483988427480000014402970644846588561_" gradientUnits="userSpaceOnUse" x1="120.6443" y1="98.3954" x2="72.0048" y2="147.035" gradientTransform="matrix(1 0 0 -1 0 153.8898)">
			<stop  offset="0" style="stop-color:#00CEC3"/>
			<stop  offset="1" style="stop-color:#0066CC"/>
			<stop  offset="1" style="stop-color:#0066CC"/>
		</linearGradient>
		<path style="fill:url(#SVGID_00000003815768483988427480000014402970644846588561_);" d="M110.1,48.1c0.5,0.5,0.9,1.1,1.3,1.7
			l2.2-2.2c0.8-0.8,0.8-2,0-2.8s-2-0.8-2.8,0l-2.2,2.2C109.1,47.2,109.6,47.6,110.1,48.1z"/>
		
			<linearGradient id="SVGID_00000019644244699739825050000004212603913431813559_" gradientUnits="userSpaceOnUse" x1="81.7943" y1="59.5455" x2="33.1547" y2="108.1851" gradientTransform="matrix(1 0 0 -1 0 153.8898)">
			<stop  offset="0" style="stop-color:#00CEC3"/>
			<stop  offset="1" style="stop-color:#0066CC"/>
			<stop  offset="1" style="stop-color:#0066CC"/>
		</linearGradient>
		<path style="fill:url(#SVGID_00000019644244699739825050000004212603913431813559_);" d="M76.5,82.6c-0.9-0.8-2-1.3-3.2-1.3
			s-2.3,0.5-3.2,1.3c-0.9,0.9-1.3,2-1.3,3.2c0,1.1,0.4,2.3,1.3,3.2c0.9,0.8,1.9,1.3,3.2,1.3c1.2,0,2.3-0.5,3.2-1.3
			c0.9-0.9,1.3-2,1.3-3.2S77.3,83.5,76.5,82.6z"/>
		
			<linearGradient id="SVGID_00000122720051023580173110000006385623459486094005_" gradientUnits="userSpaceOnUse" x1="75.0443" y1="52.7954" x2="26.4048" y2="101.435" gradientTransform="matrix(1 0 0 -1 0 153.8898)">
			<stop  offset="0" style="stop-color:#00CEC3"/>
			<stop  offset="1" style="stop-color:#0066CC"/>
			<stop  offset="1" style="stop-color:#0066CC"/>
		</linearGradient>
		<path style="fill:url(#SVGID_00000122720051023580173110000006385623459486094005_);" d="M35.2,58.3c-0.5-0.5-0.8-1-1.1-1.5
			l-2.1,2c-0.8,0.8-0.8,2,0,2.8s2,0.8,2.8,0l2.1-2.1C36.5,59.3,35.9,58.9,35.2,58.3z"/>
		
			<linearGradient id="SVGID_00000031194738213308712250000004773013935090718909_" gradientUnits="userSpaceOnUse" x1="81.8443" y1="59.5955" x2="33.2048" y2="108.2351" gradientTransform="matrix(1 0 0 -1 0 153.8898)">
			<stop  offset="0" style="stop-color:#00CEC3"/>
			<stop  offset="1" style="stop-color:#0066CC"/>
			<stop  offset="1" style="stop-color:#0066CC"/>
		</linearGradient>
		<path style="fill:url(#SVGID_00000031194738213308712250000004773013935090718909_);" d="M79.8,89.4c-0.3,0.6-0.7,1.1-1.2,1.6
			s-1,0.9-1.6,1.2l1.4,1.4c0.8,0.8,2,0.8,2.8,0s0.8-2,0-2.8L79.8,89.4z"/>
		
			<linearGradient id="SVGID_00000180337374752379526510000012598499932652282775_" gradientUnits="userSpaceOnUse" x1="75.1944" y1="52.9454" x2="26.5547" y2="101.585" gradientTransform="matrix(1 0 0 -1 0 153.8898)">
			<stop  offset="0" style="stop-color:#00CEC3"/>
			<stop  offset="1" style="stop-color:#0066CC"/>
			<stop  offset="1" style="stop-color:#0066CC"/>
		</linearGradient>
		<path style="fill:url(#SVGID_00000180337374752379526510000012598499932652282775_);" d="M68,91c-0.6-0.6-1.1-1.3-1.5-2.1
			l-1.9,1.9c-0.8,0.8-0.8,2,0,2.8s2,0.8,2.8,0l1.7-1.7C68.8,91.7,68.4,91.4,68,91z"/>
		
			<linearGradient id="SVGID_00000059291431979710865930000011909460135358508479_" gradientUnits="userSpaceOnUse" x1="114.0943" y1="91.8455" x2="65.4548" y2="140.4851" gradientTransform="matrix(1 0 0 -1 0 153.8898)">
			<stop  offset="0" style="stop-color:#00CEC3"/>
			<stop  offset="1" style="stop-color:#0066CC"/>
			<stop  offset="1" style="stop-color:#0066CC"/>
		</linearGradient>
		<path style="fill:url(#SVGID_00000059291431979710865930000011909460135358508479_);" d="M111.5,56.6c-0.4,0.7-0.8,1.4-1.4,2
			c-0.4,0.4-0.8,0.7-1.2,1l1.7,1.7c0.8,0.8,2,0.8,2.8,0s0.8-2,0-2.8L111.5,56.6z"/>
		
			<linearGradient id="SVGID_00000149362135752678022620000000089426473279512463_" gradientUnits="userSpaceOnUse" x1="113.8444" y1="91.5954" x2="65.2048" y2="140.235" gradientTransform="matrix(1 0 0 -1 0 153.8898)">
			<stop  offset="0" style="stop-color:#00CEC3"/>
			<stop  offset="1" style="stop-color:#0066CC"/>
			<stop  offset="1" style="stop-color:#0066CC"/>
		</linearGradient>
		<path style="fill:url(#SVGID_00000149362135752678022620000000089426473279512463_);" d="M108,50.2c-0.9-0.8-1.9-1.3-3.1-1.3
			s-2.3,0.5-3.1,1.3c-0.8,0.9-1.3,1.9-1.3,3.1c0,1.2,0.5,2.3,1.3,3.1s1.9,1.3,3.1,1.3s2.3-0.5,3.1-1.3c0.9-0.9,1.3-2,1.3-3.1
			S108.8,51.1,108,50.2z"/>
		
			<linearGradient id="SVGID_00000114791390678606859690000012198789190603977375_" gradientUnits="userSpaceOnUse" x1="120.7443" y1="98.4955" x2="72.1047" y2="147.135" gradientTransform="matrix(1 0 0 -1 0 153.8898)">
			<stop  offset="0" style="stop-color:#00CEC3"/>
			<stop  offset="1" style="stop-color:#0066CC"/>
			<stop  offset="1" style="stop-color:#0066CC"/>
		</linearGradient>
		<path style="fill:url(#SVGID_00000114791390678606859690000012198789190603977375_);" d="M78.2,15.8c0.5,0.5,0.9,1,1.2,1.6l2-2
			c0.8-0.8,0.8-2,0-2.8s-2-0.8-2.8,0l-2,2C77.1,14.9,77.7,15.3,78.2,15.8z"/>
		
			<linearGradient id="SVGID_00000001626100879098948710000007777411872630453400_" gradientUnits="userSpaceOnUse" x1="81.7943" y1="59.5454" x2="33.1548" y2="108.185" gradientTransform="matrix(1 0 0 -1 0 153.8898)">
			<stop  offset="0" style="stop-color:#00CEC3"/>
			<stop  offset="1" style="stop-color:#0066CC"/>
			<stop  offset="1" style="stop-color:#0066CC"/>
		</linearGradient>
		<path style="fill:url(#SVGID_00000001626100879098948710000007777411872630453400_);" d="M34,49.4c0.3-0.6,0.7-1.1,1.2-1.6
			s1-0.9,1.6-1.2L35,44.8c-0.8-0.8-2-0.8-2.8,0s-0.8,2,0,2.8L34,49.4z"/>
		
			<linearGradient id="SVGID_00000137829065948526800940000014315113506919515302_" gradientUnits="userSpaceOnUse" x1="114.0694" y1="91.8204" x2="65.4298" y2="140.46" gradientTransform="matrix(1 0 0 -1 0 153.8898)">
			<stop  offset="0" style="stop-color:#00CEC3"/>
			<stop  offset="1" style="stop-color:#0066CC"/>
			<stop  offset="1" style="stop-color:#0066CC"/>
		</linearGradient>
		<path style="fill:url(#SVGID_00000137829065948526800940000014315113506919515302_);" d="M66.5,17.3c0.3-0.5,0.7-1,1.1-1.5
			c0.5-0.5,1.1-1,1.8-1.3l-2-2c-0.8-0.8-2-0.8-2.8,0s-0.8,2,0,2.8L66.5,17.3z"/>
	</g>
</g>
</svg>
